<?xml version="1.0" encoding="utf-8"?>
<!-- Generator: Adobe Illustrator 16.0.0, SVG Export Plug-In . SVG Version: 6.00 Build 0)  -->
<!DOCTYPE svg PUBLIC "-//W3C//DTD SVG 1.1//EN" "http://www.w3.org/Graphics/SVG/1.1/DTD/svg11.dtd">
<svg version="1.1" id="Shape_1_7_" xmlns="http://www.w3.org/2000/svg" xmlns:xlink="http://www.w3.org/1999/xlink" x="0px" y="0px"
	 width="896px" height="353px" viewBox="0 0 896 353" enable-background="new 0 0 896 353" xml:space="preserve">
<g id="Shape_1">
	<g>
		<path fill="#323232" d="M196.773,257.074c-4.229,0-7.657,3.416-7.657,7.631s3.428,7.631,7.657,7.631s7.657-3.416,7.657-7.631
			S201.002,257.074,196.773,257.074z M196.773,278.727c-1.792,0-3.246,1.447-3.246,3.234c0,1.785,1.453,3.232,3.246,3.232
			s3.246-1.447,3.246-3.232C200.019,280.174,198.565,278.727,196.773,278.727z M205.374,288.654v26.197
			c7.688-1.301,14.788-4.314,20.897-8.633l-18.588-18.522C206.932,288.051,206.163,288.373,205.374,288.654z M220.806,273.274
			c-0.283,0.786-0.602,1.558-0.957,2.306l18.587,18.521c4.333-6.087,7.355-13.165,8.661-20.826H220.806z M185.864,241.711
			c0.751-0.354,1.52-0.676,2.309-0.957v-26.196c-7.688,1.3-14.789,4.313-20.897,8.631L185.864,241.711z M196.773,181.41
			c-46.164,0-83.587,37.293-83.587,83.295S150.609,348,196.773,348s83.587-37.293,83.587-83.295S242.937,181.41,196.773,181.41z
			 M196.773,324.201c-32.974,0-59.705-26.639-59.705-59.496c0-32.859,26.73-59.496,59.705-59.496s59.705,26.637,59.705,59.496
			C256.478,297.563,229.747,324.201,196.773,324.201z M167.274,306.221c6.108,4.316,13.21,7.33,20.898,8.631v-26.196
			c-0.79-0.28-1.56-0.604-2.311-0.958L167.274,306.221z M182.7,264.703c0-1.785-1.453-3.234-3.246-3.234s-3.246,1.449-3.246,3.234
			s1.453,3.233,3.246,3.233S182.7,266.489,182.7,264.703z M220.807,256.133h26.29c-1.305-7.66-4.329-14.737-8.662-20.824
			l-18.588,18.523C220.202,254.58,220.524,255.348,220.807,256.133z M196.773,250.68c1.792,0,3.246-1.448,3.246-3.234
			c0-1.785-1.453-3.232-3.246-3.232s-3.246,1.447-3.246,3.232C193.527,249.231,194.98,250.68,196.773,250.68z M210.846,264.703
			c0,1.785,1.453,3.233,3.246,3.233s3.246-1.448,3.246-3.233s-1.453-3.234-3.246-3.234S210.846,262.918,210.846,264.703z
			 M173.698,253.83l-18.587-18.521c-4.333,6.087-7.355,13.165-8.661,20.826h26.292C173.024,255.348,173.342,254.578,173.698,253.83z
			 M755.771,252.201h26.289c-1.305-7.662-4.327-14.738-8.66-20.826l-18.59,18.523C755.165,250.646,755.487,251.414,755.771,252.201z
			 M172.739,273.274H146.45c1.305,7.661,4.328,14.737,8.661,20.825l18.588-18.521C173.344,274.828,173.021,274.061,172.739,273.274z
			 M226.271,223.188c-6.108-4.314-13.21-7.33-20.897-8.63v26.196c0.789,0.281,1.559,0.603,2.31,0.957L226.271,223.188z
			 M740.337,284.721v26.197c7.688-1.301,14.789-4.316,20.897-8.633l-18.591-18.523C741.896,284.117,741.126,284.439,740.337,284.721
			z M754.812,271.645l18.59,18.521c4.333-6.086,7.354-13.164,8.658-20.826h-26.291C755.486,270.127,755.167,270.896,754.812,271.645
			z M731.736,253.141c-4.229,0-7.657,3.416-7.657,7.63c0,4.215,3.429,7.631,7.657,7.631c4.228,0,7.655-3.416,7.655-7.631
			C739.394,256.557,735.965,253.141,731.736,253.141z M731.736,274.793c-1.793,0-3.246,1.447-3.246,3.233s1.453,3.233,3.246,3.233
			c1.792,0,3.245-1.447,3.245-3.233S733.528,274.793,731.736,274.793z M21.867,187.834c-0.022,0.006-0.032,0.004-0.056,0.01
			C21.835,187.982,21.854,187.971,21.867,187.834z M892.987,208.974c1.476-52.841-33.835-74.253-32.12-72.974
			c-8.865-6.607-20.691-9.008-32.965-12.397c21.245,5.868-30.112-5.286-143.693-17.75c-2.16-0.095-4.32-0.188-6.479-0.281
			c-25.269-7.694-26.193-9.159-34.372-14.935c-7.901-5.574-15.815-11.102-23.667-16.623c-16.433-11.551-33.65-22.195-50.718-32.964
			c-6.354-4.011-12.967-7.049-19.438-10.988c-6.073-3.694-18.995-9.243-20.005-9.58c-0.63-0.471-0.688-1.555-1.127-2.254
			c-2.403-3.805-5.808-11.049-12.115-9.86c0,0.752,0,1.503,0,2.254c0.717,1.104,0.591,3.683,0.563,5.354
			c-8.245-0.812-24.794-3.099-24.794-3.099s-28.022-3.834-62.808-5.042c-56.897-1.978-131.883-3.438-131.883-3.438
			s-72.152,1.84-126.089,4.069c-32.192,1.331-57.895,3.538-57.895,3.538s-39.964,6.832-38.318,6.224
			c-16.795,6.207-4.993,7.601-4.508,10.425c-9.25,9.973-25.809,17.2-47.053,80.02c-1.77,5.231-1.238,11.699-2.536,17.188
			c0,22.553,1.117,59.736,0.901,61.979c3.723-0.819-22.681,14.576-9.917,58.61c1.274,4.397,7.411,17.749,10.153,14.14
			c-12.241,16.121,33.907,24.601,90.521,29.026c-2.35-7.896-3.617-16.253-3.617-24.907c0-48.304,39.294-87.461,87.767-87.461
			s87.767,39.157,87.767,87.461c0,10.371-1.815,20.316-5.14,29.549c1.242-0.014,1.902-0.021,1.902-0.021l369.516,0.469
			c-4.41-10.435-6.852-21.896-6.852-33.929c0-48.304,39.295-87.461,87.77-87.461c48.473,0,87.768,39.157,87.768,87.461
			c0,12.11-2.471,23.646-6.936,34.132l4.628,0.008c0,0,39.266,2.533,44.798-12.115c1.754-1.08,5.023-0.463,7.044-1.127
			c6.262-2.064,16.019-14.871,12.396-12.68C888.522,264.698,892.39,230.366,892.987,208.974z M247.494,38.875l-46.489,65.601
			c0,0,16.138,0.282-142.997-0.146c13.339-45.461,46.34-70.353,46.34-70.353l136.666-8.005c0,0,7.981-0.04,9.017,2.745
			C252.264,31.446,247.494,38.875,247.494,38.875z M288.63,107.135c0,0-16.209-4.756-18.878-13.115
			c-1.136-3.561-0.391-8.309,0.521-11.395c-0.007,0.006,0.008-0.039,0.044-0.158c-0.018,0.05-0.029,0.106-0.044,0.158
			c0.127-0.177,13.628-41.085,24.272-50.312c13.688-7.695,101.431-1.689,101.431-1.689l0.037,76.364L288.63,107.135z
			 M570.663,72.326c0,0.094,0,0.188,0,0.28c-0.094,0-0.188,0-0.281,0c-11.544,14.993-0.563,38.317-0.563,38.317l-137.479-0.049
			c0,0,0.267-75.625,0.267-69.544c0.839-3.864,0.624-7.521,2.534-10.144c1.871-2.564,5.31-2.26,8.734-3.381
			c0.707,0.027,41.023-0.88,62.831,6.198C520.223,38.394,573.412,74.135,570.663,72.326z M731.736,177.476
			c-46.164,0-83.587,37.293-83.587,83.295c0,46.003,37.423,83.296,83.587,83.296s83.587-37.293,83.587-83.296
			C815.323,214.769,777.9,177.476,731.736,177.476z M731.736,320.268c-32.977,0-59.705-26.639-59.705-59.497
			c0-32.856,26.729-59.496,59.705-59.496c32.974,0,59.705,26.64,59.705,59.496C791.441,293.629,764.71,320.268,731.736,320.268z
			 M745.809,260.77c0,1.786,1.453,3.234,3.246,3.234c1.792,0,3.245-1.448,3.245-3.234s-1.453-3.232-3.245-3.232
			C747.262,257.535,745.809,258.983,745.809,260.77z M720.827,237.779c0.751-0.354,1.52-0.678,2.309-0.959v-26.195
			c-7.688,1.301-14.788,4.313-20.896,8.631L720.827,237.779z M731.736,246.746c1.792,0,3.245-1.447,3.245-3.234
			c0-1.785-1.453-3.233-3.245-3.233c-1.793,0-3.246,1.448-3.246,3.233C728.49,245.299,729.943,246.746,731.736,246.746z
			 M761.234,219.254c-6.107-4.316-13.21-7.33-20.897-8.631v26.195c0.789,0.281,1.561,0.604,2.312,0.957L761.234,219.254z
			 M708.661,249.896l-18.588-18.521c-4.333,6.088-7.355,13.166-8.66,20.826h26.291C707.987,251.414,708.306,250.645,708.661,249.896
			z M717.663,260.77c0-1.786-1.453-3.232-3.245-3.232c-1.793,0-3.246,1.446-3.246,3.232s1.453,3.234,3.246,3.234
			C716.21,264.004,717.663,262.556,717.663,260.77z M702.237,302.287c6.106,4.316,13.211,7.33,20.896,8.631v-26.195
			c-0.789-0.282-1.56-0.604-2.311-0.958L702.237,302.287z M707.702,269.34h-26.289c1.305,7.662,4.328,14.738,8.661,20.826
			l18.589-18.523C708.307,270.895,707.984,270.127,707.702,269.34z"/>
	</g>
</g>
</svg>
